HIERARCHY
ROOT ui
{
	 OFFSET 0 0 0
	 CHANNELS 3 XPosition YPosition Z Position
	 EndSite
	 {
	 OFFSET 0 -1 0
	 }
}
ROOT li
{
	 OFFSET 0 0 0
	 CHANNELS 3 XPosition YPosition Z Position
	 EndSite
	 {
	 OFFSET 0 -1 0
	 }
}
ROOT ul
{
	 OFFSET 0 0 0
	 CHANNELS 3 XPosition YPosition Z Position
	 EndSite
	 {
	 OFFSET 0 -1 0
	 }
}
ROOT ll
{
	 OFFSET 0 0 0
	 CHANNELS 3 XPosition YPosition Z Position
	 EndSite
	 {
	 OFFSET 0 -1 0
	 }
}
ROOT tt
{
	 OFFSET 0 0 0
	 CHANNELS 3 XPosition YPosition Z Position
	 EndSite
	 {
	 OFFSET 0 -1 0
	 }
}
ROOT tb
{
	 OFFSET 0 0 0
	 CHANNELS 3 XPosition YPosition Z Position
	 EndSite
	 {
	 OFFSET 0 -1 0
	 }
}
ROOT td
{
	 OFFSET 0 0 0
	 CHANNELS 3 XPosition YPosition Z Position
	 EndSite
	 {
	 OFFSET 0 -1 0
	 }
}
ROOT v
{
	 OFFSET 0 0 0
	 CHANNELS 3 XPosition YPosition Z Position
	 EndSite
	 {
	 OFFSET 0 -1 0
	 }
}
ROOT bn
{
	 OFFSET 0 0 0
	 CHANNELS 3 XPosition YPosition Z Position
	 EndSite
	 {
	 OFFSET 0 -1 0
	 }
}
MOTION
Frames: 13
Frame Time: 0.002
-0.004795025825500488	-0.006799274921417236	0		0.4907084045410156	-2.389125244140625	0		-1.1145400390625	0.1819731903076172	0		-0.5027325134277344	-2.821842529296875	0		1.498923095703125	-0.6034873046875	0		2.837854736328125	0.26998052978515624	0		4.321728515625	0.49260147094726564	0		5.96773095703125	0.41848052978515626	0		-0.22540463256835938	5.914390625	0		
0.0023004651069641114	8.460500091314316E-5	0		0.46577911376953124	-2.383844970703125	0		-1.1145306396484376	0.18194552612304687	0		-0.47764129638671876	-2.81518115234375	0		1.5309293212890625	-0.6039144287109375	0		2.845012451171875	0.2818611145019531	0		4.33782421875	0.4993693237304688	0		5.9706962890625	0.43909268188476563	0		-0.20926657104492188	5.9241630859375	0		
0.005348587989807129	0.0030187900066375732	0		0.4698591003417969	-2.378922119140625	0		-1.11452001953125	0.18191378784179688	0		-0.5085325317382813	-2.807827392578125	0		1.509080322265625	-0.5926663818359375	0		2.841936279296875	0.27487893676757813	0		4.34192041015625	0.5063037719726563	0		5.97139990234375	0.4355934753417969	0		-0.1903365478515625	5.91889892578125	0		
-0.0246751708984375	3.6404800415039065E-4	0		0.4927984313964844	-2.386229736328125	0		-1.0476143798828126	0.1730498809814453	0		-0.47759078979492187	-2.8152412109375	0		1.523156494140625	-0.5878562622070312	0		2.892003662109375	0.27925244140625	0		4.34475390625	0.49227151489257814	0		5.971408203125	0.4356204528808594	0		-0.19036700439453125	5.91887109375	0		
0.0023328099250793455	5.814999807626009E-6	0		0.4839343566894531	-2.378137451171875	0		-1.1286370849609375	0.17101742553710939	0		-0.5233978271484375	-2.80270166015625	0		1.5260489501953125	-0.5978997192382812	0		2.837027099609375	0.28094107055664064	0		4.34493212890625	0.5062943420410156	0		5.97141455078125	0.4356934814453125	0		-0.19140940856933594	5.919857421875	0		
-0.0017065500020980835	-0.003964291095733642	0		0.49287942504882815	-2.3862607421875	0		-1.0566971435546875	0.16509124755859375	0		-0.47749880981445314	-2.815297119140625	0		1.520154541015625	-0.5908236083984375	0		2.849106201171875	0.28681393432617186	0		4.34476123046875	0.49233917236328123	0		5.95871630859375	0.46214459228515625	0		-0.22358285522460938	5.91223095703125	0		
0.0023542280197143555	-2.886799909174442E-5	0		0.46798532104492185	-2.38195849609375	0		-1.128621337890625	0.17094578552246092	0		-0.5063231506347656	-2.805963134765625	0		1.5291390380859375	-0.5939219360351562	0		2.8739501953125	0.27354278564453127	0		4.34193701171875	0.5064385681152344	0		5.974388671875	0.4566463928222656	0		-0.22269017028808594	5.91119970703125	0		
0.00945566177368164	0.006875978946685791	0		0.5280836181640625	-2.37969677734375	0		-1.05667626953125	0.16502668762207032	0		-0.4702633972167969	-2.80742578125	0		1.5781142578125	-0.5985016479492188	0		2.88810693359375	0.2854214782714844	0		4.35694091796875	0.5063367919921875	0		5.97144140625	0.4361781005859375	0		-0.18971524047851562	5.917779296875	0		
0.005427759170532226	0.0029249560832977296	0		0.4701658630371094	-2.378971435546875	0		-1.0757314453125	0.1592349090576172	0		-0.4830882568359375	-2.8002783203125	0		1.5661383056640625	-0.599317138671875	0		2.841989501953125	0.2750561828613281	0		4.35287646484375	0.500489501953125	0		5.96780322265625	0.41923248291015625	0		-0.20496923828125	5.90695947265625	0		
0.002417707920074463	-3.051899932324886E-5	0		0.513263916015625	-2.378479736328125	0		-1.074819580078125	0.15020243835449218	0		-0.4829882202148438	-2.80028369140625	0		1.5690577392578124	-0.6093048095703125	0		2.88900537109375	0.2745611572265625	0		4.36388916015625	0.5004759521484375	0		5.96364794921875	0.4404036560058594	0		-0.189963623046875	5.9177763671875	0		
0.0024484670162200927	-1.5301000326871872E-5	0		0.4683159484863281	-2.381898681640625	0		-1.15482373046875	0.14816722106933594	0		-0.5039260864257813	-2.804024658203125	0		1.566069091796875	-0.6122085571289062	0		2.873029541015625	0.274853515625	0		4.35290673828125	0.5007485656738281	0		5.96662744140625	0.4613957824707031	0		-0.23930381774902343	5.9013876953125	0		
-0.0015673749446868895	-0.003943599939346313	0		0.4974167785644531	-2.382216552734375	0		-1.0878980712890625	0.13933775329589843	0		-0.5007620239257813	-2.800053955078125	0		1.56915625	-0.6091767578125	0		2.904052001953125	0.27458203125	0		4.3689970703125	0.5067035217285156	0		5.96665087890625	0.4617413330078125	0		-0.22332421875	5.91120654296875	0		
0.005549589157104492	0.0029999771118164064	0		0.4367207946777344	-2.365429931640625	0		-1.1638524169921876	0.1412601318359375	0		-0.5054616394042969	-2.78497998046875	0		1.578181884765625	-0.6112091064453125	0		2.86693212890625	0.26315155029296877	0		4.37593994140625	0.500781005859375	0		5.9666728515625	0.4621084594726563	0		-0.22445968627929688	5.91224169921875	0		
